#!OML:ASF F:\VICON\USERDATA\INSTALL\rory3\rory3.ASF
:FULLY-SPECIFIED
:DEGREES
3088
root 2.04502 14.0722 8.5202 -362.215 -5.8091 356.379
lowerback 16.8905 3.07814 -1.73693
upperback -1.48283 4.04894 2.71129
thorax -11.4844 2.12321 2.88954
lowerneck -13.6952 -5.5605 -2.83062
upperneck 20.0543 -7.81859 3.32713
head 8.76936 -3.55141 0.677225
rclavicle -2.78733e-014 1.98785e-016
rhumerus 9.85149 -5.03106 -79.606
rradius 94.127
rwrist 21.1032
rhand -12.1569 26.7657
rfingers 7.12502
rthumb 13.9058 -2.7493
lclavicle -2.78733e-014 1.98785e-016
lhumerus 9.50202 -6.75585 74.1921
lradius 104.112
lwrist -22.3926
lhand -11.7555 9.88584
lfingers 7.12502
lthumb 14.2926 39.3739
rfemur 8.81543 -7.26629 8.70816
rtibia 39.6281
rfoot -34.4906 -12.7684
rtoes -41.5414
lfemur -46.6733 11.2 -9.87488
ltibia 72.9948
lfoot -18.6249 -12.5047
ltoes -15.5055
3089
root 2.06556 14.0644 8.54324 -362.24 -5.64213 356.29
lowerback 16.7934 3.17018 -1.63518
upperback -1.45232 4.18764 2.66982
thorax -11.3924 2.17985 2.75251
lowerneck -13.532 -5.71901 -3.0276
upperneck 20.0166 -8.08904 3.74075
head 8.76353 -3.65299 0.819312
rclavicle 6.75247e-015 -1.19271e-014
rhumerus 10.377 -5.42569 -79.3529
rradius 93.3618
rwrist 21.7976
rhand -12.1962 26.4752
rfingers 7.12502
rthumb 13.868 -3.04239
lclavicle 6.75247e-015 -1.19271e-014
lhumerus 10.1248 -7.1386 74.1268
lradius 103.497
lwrist -22.2485
lhand -11.4944 9.89485
lfingers 7.12502
lthumb 14.5441 39.365
rfemur 9.36327 -6.95747 8.85289
rtibia 39.1337
rfoot -35.0392 -11.5524
rtoes -38.4894
lfemur -46.7527 11.1551 -9.91155
ltibia 73.1558
lfoot -18.7209 -12.5319
ltoes -15.6375
3090
root 2.09262 14.0551 8.57177 -362.088 -5.36156 356.46
lowerback 16.6076 3.1643 -1.8875
upperback -1.54662 4.13326 2.6766
thorax -11.4072 2.17263 2.92377
lowerneck -13.4894 -5.77417 -3.08114
upperneck 20.0035 -8.12941 3.63328
head 8.75015 -3.68801 0.788508
rclavicle 4.46023e-015 8.54774e-015
rhumerus 10.7926 -5.30574 -79.0354
rradius 92.638
rwrist 22.269
rhand -12.0246 26.6405
rfingers 7.12502
rthumb 14.0333 -2.86571
lclavicle 4.46023e-015 8.54774e-015
lhumerus 10.4446 -7.30637 74.0481
lradius 102.768
lwrist -22.1524
lhand -12.0028 9.7887
lfingers 7.12502
lthumb 14.0543 39.2935
rfemur 9.6011 -7.20797 8.47866
rtibia 38.8353
rfoot -35.1201 -11.6336
rtoes -38.8388
lfemur -46.9995 10.8647 -10.3352
ltibia 73.3828
lfoot -18.9629 -12.3803
ltoes -15.4943
3091
root 2.11385 14.0511 8.59836 -362.28 -5.31959 356.143
lowerback 16.7291 3.19368 -1.60394
upperback -1.49475 4.23306 2.72157
thorax -11.4084 2.2024 2.78139
lowerneck -13.3051 -5.78121 -2.8735
upperneck 19.8515 -8.16259 3.5485
head 8.65291 -3.70253 0.730038
rclavicle -1.92448e-014 -3.97569e-016
rhumerus 11.3714 -5.39004 -79.0155
rradius 91.8313
rwrist 23.067
rhand -11.294 26.237
rfingers 7.12502
rthumb 14.7373 -3.21911
lclavicle -1.92448e-014 -3.97569e-016
lhumerus 10.8289 -7.27665 74.1077
lradius 101.982
lwrist -22.6367
lhand -12.4458 9.4321
lfingers 7.12502
lthumb 13.6274 38.966
rfemur 10.069 -6.78303 9.01763
rtibia 38.4426
rfoot -34.7063 -13.0333
rtoes -40.4276
lfemur -46.813 10.9155 -10.0176
ltibia 73.5506
lfoot -19.0502 -12.5734
ltoes -14.9963
3092
root 2.13566 14.0529 8.6213 -362.201 -5.11963 356.124
lowerback 16.7114 3.21229 -1.73051
upperback -1.52371 4.24053 2.78534
thorax -11.447 2.21737 2.92172
lowerneck -13.4743 -5.76586 -3.21759
upperneck 19.9152 -8.14957 3.93302
head 8.73791 -3.67785 0.909468
rclavicle 3.78933e-016 9.93923e-015
rhumerus 11.6546 -5.50029 -78.7422
rradius 91.3096
rwrist 23.4556
rhand -11.8234 26.4923
rfingers 7.12502
rthumb 14.2272 -3.00038
lclavicle 3.78933e-016 9.93923e-015
lhumerus 11.2677 -7.26001 73.9908
lradius 101.345
lwrist -22.689
lhand -12.0465 9.51471
lfingers 7.12502
lthumb 14.0122 39.0224
rfemur 10.2792 -6.73643 9.13542
rtibia 38.011
rfoot -34.0533 -14.6156
rtoes -42.2167
lfemur -46.937 10.8167 -10.1415
ltibia 73.6435
lfoot -19.0122 -12.7506
ltoes -14.4207
3093
root 2.15391 14.0467 8.64302 -362.036 -4.94146 355.758
lowerback 16.6158 3.24972 -1.389
upperback -1.56948 4.3606 2.77578
thorax -11.4238 2.25264 2.68827
lowerneck -12.6841 -5.84763 -3.41073
upperneck 19.081 -8.33008 4.55836
head 8.35686 -3.74207 1.15743
rclavicle 6.64686e-015 1.70955e-014
rhumerus 12.3269 -5.83364 -78.832
rradius 90.2664
rwrist 24.4689
rhand -12.1736 26.5065
rfingers 7.12502
rthumb 13.8897 -3.00968
lclavicle 6.64686e-015 1.70955e-014
lhumerus 11.9121 -7.52942 73.8994
lradius 100.337
lwrist -23.1548
lhand -12.3808 9.16024
lfingers 7.12502
lthumb 13.6901 38.69
rfemur 10.5799 -6.59411 9.60495
rtibia 37.4958
rfoot -34.2287 -14.2848
rtoes -41.3402
lfemur -47.324 10.7905 -9.869
ltibia 73.95
lfoot -19.0824 -12.9571
ltoes -14.0418
3094
root 2.17512 14.0386 8.67201 -362.146 -4.60503 355.93
lowerback 16.6241 3.20204 -1.65764
upperback -1.57502 4.24459 2.79197
thorax -11.4495 2.21605 2.88931
lowerneck -13.6651 -5.90345 -3.14115
upperneck 20.1165 -8.39003 4.04288
head 8.85296 -3.76626 0.896687
rclavicle -9.47954e-015 -2.06736e-014
rhumerus 12.5139 -5.83411 -78.5837
rradius 89.8732
rwrist 24.8823
rhand -11.747 26.5202
rfingers 7.12502
rthumb 14.3008 -2.96729
lclavicle -9.47954e-015 -2.06736e-014
lhumerus 12.3263 -7.4584 73.915
lradius 99.6612
lwrist -22.9102
lhand -12.0613 9.57085
lfingers 7.12502
lthumb 13.998 39.0795
rfemur 11.2099 -6.63694 9.33225
rtibia 37.0552
rfoot -34.6751 -13.442
rtoes -39.6911
lfemur -47.2513 10.4991 -10.2168
ltibia 74.0327
lfoot -19.2495 -12.8727
ltoes -14.0693
3095
root 2.19547 14.0385 8.70693 -362.176 -4.57561 355.986
lowerback 16.2203 3.28391 -1.68842
upperback -1.43577 4.33733 2.71693
thorax -11.0607 2.25647 2.81843
lowerneck -13.5355 -6.06019 -3.27748
upperneck 19.9152 -8.60822 4.21955
head 8.78412 -3.86619 0.95657
rclavicle 1.71079e-014 -4.96962e-015
rhumerus 13.0034 -6.19621 -78.6051
rradius 89.3158
rwrist 26.1953
rhand -11.6039 26.5918
rfingers 7.12502
rthumb 14.4386 -2.88591
lclavicle 1.71079e-014 -4.96962e-015
lhumerus 13.0861 -7.5913 73.8015
lradius 98.7057
lwrist -23.2017
lhand -12.5046 9.44419
lfingers 7.12502
lthumb 13.5707 38.9819
rfemur 11.6181 -6.47267 9.24703
rtibia 36.6194
rfoot -34.4976 -13.7861
rtoes -40.3214
lfemur -47.092 10.4862 -10.3882
ltibia 74.0963
lfoot -19.4745 -12.7749
ltoes -14.3477
3096
root 2.21675 14.0414 8.72773 -362.142 -4.40174 355.983
lowerback 16.1571 3.31799 -1.70595
upperback -1.39609 4.37412 2.67619
thorax -10.98 2.27267 2.77741
lowerneck -13.3138 -6.16818 -3.44322
upperneck 19.6181 -8.777 4.52431
head 8.67247 -3.93576 1.07371
rclavicle 6.39838e-016 -2.90226e-014
rhumerus 13.4392 -6.29931 -78.4642
rradius 88.839
rwrist 26.3743
rhand -11.3998 26.2412
rfingers 7.12502
rthumb 14.6353 -3.22235
lclavicle 6.39838e-016 -2.90226e-014
lhumerus 13.5016 -7.60374 73.815
lradius 98.155
lwrist -23.443
lhand -12.2703 9.56887
lfingers 7.12502
lthumb 13.7965 39.0914
rfemur 11.7789 -6.46961 9.29897
rtibia 36.3411
rfoot -33.9439 -15.1384
rtoes -42.2583
lfemur -47.1711 10.3832 -10.53
ltibia 74.1818
lfoot -19.4513 -12.8428
ltoes -13.5579
3097
root 2.23479 14.0293 8.74513 -362.109 -4.39695 355.516
lowerback 16.1999 3.32583 -1.30276
upperback -1.44199 4.47703 2.78301
thorax -11.0404 2.30166 2.63666
lowerneck -13.2551 -6.17404 -3.37129
upperneck 19.6948 -8.81104 4.54155
head 8.68689 -3.94439 1.06484
rclavicle -5.93869e-014 -3.77691e-014
rhumerus 13.707 -6.43104 -78.4181
rradius 88.33
rwrist 27.3544
rhand -10.8573 26.4961
rfingers 7.12502
rthumb 15.1579 -2.92876
lclavicle -5.93869e-014 -3.77691e-014
lhumerus 13.7919 -7.61831 73.7698
lradius 97.3692
lwrist -23.3475
lhand -12.3476 9.40031
lfingers 7.12502
lthumb 13.722 38.9279
rfemur 12.1667 -6.13399 9.90041
rtibia 35.836
rfoot -34.2144 -14.5734
rtoes -40.9167
lfemur -47.362 10.4984 -10.0755
ltibia 74.5216
lfoot -19.6263 -12.9274
ltoes -14.1144
3098
root 2.25076 14.0233 8.76332 -362.078 -4.14794 355.406
lowerback 16.1802 3.31224 -1.26334
upperback -1.40782 4.46734 2.79825
thorax -10.9881 2.29485 2.6351
lowerneck -13.3252 -6.22047 -3.28766
upperneck 19.6356 -8.87313 4.47341
head 8.67483 -3.97395 1.01959
rclavicle 1.02126e-014 4.57205e-015
rhumerus 14.2684 -6.46116 -78.318
rradius 87.8113
rwrist 27.2518
rhand -11.1807 26.3669
rfingers 7.12502
rthumb 14.8464 -3.08117
lclavicle 1.02126e-014 4.57205e-015
lhumerus 14.3552 -7.60564 73.8653
lradius 96.6946
lwrist -23.5747
lhand -12.6814 9.64829
lfingers 7.12502
lthumb 13.4003 39.1973
rfemur 12.5064 -6.17057 10.0369
rtibia 35.4803
rfoot -34.2246 -14.7138
rtoes -40.679
lfemur -47.5319 10.4668 -10.0716
ltibia 74.6914
lfoot -19.6434 -13.2251
ltoes -13.4139
3099
root 2.26657 14.019 8.77416 -362.026 -3.98445 355.413
lowerback 16.1371 3.36083 -1.30577
upperback -1.39872 4.52021 2.76715
thorax -10.9571 2.32123 2.61327
lowerneck -13.1579 -6.37276 -3.34899
upperneck 19.4138 -9.08727 4.59099
head 8.5873 -4.07459 1.04988
rclavicle -1.98598e-014 1.41137e-014
rhumerus 14.4899 -6.78784 -78.0874
rradius 87.4985
rwrist 28.1872
rhand -11.2576 26.6859
rfingers 7.12502
rthumb 14.7723 -2.76765
lclavicle -1.98598e-014 1.41137e-014
lhumerus 14.8416 -7.6757 73.8177
lradius 96.0402
lwrist -23.2589
lhand -12.8623 9.26104
lfingers 7.12502
lthumb 13.2259 38.8215
rfemur 12.5417 -6.19712 10.0631
rtibia 35.358
rfoot -33.8493 -15.6896
rtoes -42.0179
lfemur -47.6378 10.2769 -10.187
ltibia 74.8416
lfoot -19.8845 -13.0455
ltoes -13.9209
3100
root 2.285 14.0141 8.79996 -362.125 -3.93305 355.441
lowerback 16.2481 3.37096 -1.4328
upperback -1.35022 4.50771 2.77243
thorax -10.9771 2.32227 2.69005
lowerneck -13.4008 -6.32677 -3.34962
upperneck 19.5004 -9.03025 4.62423
head 8.66014 -4.03765 1.05932
rclavicle 3.44581e-014 0
rhumerus 14.9273 -6.58089 -77.9301
rradius 86.9291
rwrist 28.3146
rhand -11.1028 26.6013
rfingers 7.12502
rthumb 14.9215 -2.84123
lclavicle 3.44581e-014 0
lhumerus 15.2479 -7.48789 73.8465
lradius 95.3413
lwrist -23.9378
lhand -12.4362 9.05658
lfingers 7.12502
lthumb 13.6367 38.5899
rfemur 13.0852 -6.01605 10.0006
rtibia 34.8592
rfoot -33.9928 -15.3701
rtoes -41.2516
lfemur -47.5087 10.217 -10.3005
ltibia 74.92
lfoot -19.9495 -13.0332
ltoes -13.8
3101
root 2.30622 14.017 8.82478 -362.028 -3.76836 355.481
lowerback 16.042 3.37887 -1.50278
upperback -1.35964 4.50159 2.73707
thorax -10.8706 2.32283 2.70163
lowerneck -12.8684 -6.27905 -3.49569
upperneck 19.0927 -8.99681 4.98186
head 8.44915 -4.01522 1.22612
rclavicle -7.29695e-014 -2.88238e-015
rhumerus 15.341 -6.63916 -77.8074
rradius 86.302
rwrist 28.7232
rhand -11.2902 26.8565
rfingers 7.12502
rthumb 14.7409 -2.59935
lclavicle -7.29695e-014 -2.88238e-015
lhumerus 15.8753 -7.48574 73.8504
lradius 94.5394
lwrist -23.8192
lhand -12.2887 8.83086
lfingers 7.12502
lthumb 13.7788 38.3546
rfemur 13.2063 -6.17904 9.90012
rtibia 34.4978
rfoot -33.0935 -17.0069
rtoes -44.0187
lfemur -47.5694 10.0238 -10.5125
ltibia 74.9386
lfoot -20.0438 -12.9089
ltoes -13.5525
3102
root 2.32662 14.0029 8.84058 -361.99 -3.70037 355.368
lowerback 15.9387 3.43005 -1.28582
upperback -1.3459 4.60758 2.69891
thorax -10.7808 2.3586 2.51492
lowerneck -13.1475 -6.39797 -3.51773
upperneck 19.3521 -9.1744 5.01413
head 8.59869 -4.08574 1.20752
rclavicle 4.88513e-014 1.92821e-014
rhumerus 15.6621 -6.89411 -77.5519
rradius 85.8372
rwrist 28.6838
rhand -10.9431 26.8333
rfingers 7.12502
rthumb 15.0753 -2.59772
lclavicle 4.88513e-014 1.92821e-014
lhumerus 16.2471 -7.67153 73.8844
lradius 93.9534
lwrist -23.7152
lhand -11.9399 9.05562
lfingers 7.12502
lthumb 14.115 38.5562
rfemur 13.482 -5.93006 10.0053
rtibia 34.2741
rfoot -33.9699 -15.4912
rtoes -41.1858
lfemur -47.7701 9.91864 -10.4794
ltibia 75.2484
lfoot -20.2169 -12.8509
ltoes -13.9209
